<svg id="Capa_1" enable-background="new 0 0 502 502" height="512" viewBox="0 0 502 502" width="512" xmlns="http://www.w3.org/2000/svg" xmlns:xlink="http://www.w3.org/1999/xlink"><linearGradient id="lg1"><stop offset="0" stop-color="#4f4c5f"/><stop offset=".9783" stop-color="#6a647f"/></linearGradient><linearGradient id="SVGID_1_" gradientUnits="userSpaceOnUse" x1="204.956" x2="498.406" xlink:href="#lg1" y1="308.789" y2="308.789"/><linearGradient id="SVGID_2_" gradientUnits="userSpaceOnUse" x1="204.956" x2="498.406" xlink:href="#lg1" y1="408.13" y2="408.13"/><linearGradient id="SVGID_3_" gradientUnits="userSpaceOnUse" x1="3.595" x2="297.045" y1="74.387" y2="74.387"><stop offset="0" stop-color="#d66743"/><stop offset=".9788" stop-color="#e79580"/></linearGradient><linearGradient id="lg2"><stop offset="0" stop-color="#f9b897"/><stop offset="1" stop-color="#f9cdb7"/></linearGradient><linearGradient id="SVGID_4_" gradientUnits="userSpaceOnUse" x1="0" x2="58.146" xlink:href="#lg2" y1="146.54" y2="146.54"/><linearGradient id="SVGID_5_" gradientUnits="userSpaceOnUse" x1="242.493" x2="300.639" xlink:href="#lg2" y1="146.54" y2="146.54"/><linearGradient id="SVGID_6_" gradientUnits="userSpaceOnUse" x1="29.072" x2="271.566" xlink:href="#lg2" y1="156.635" y2="156.635"/><linearGradient id="lg3"><stop offset=".0005103643" stop-color="#c5836a"/><stop offset="1" stop-color="#d89b80"/></linearGradient><linearGradient id="SVGID_7_" gradientUnits="userSpaceOnUse" x1="443.854" x2="502" xlink:href="#lg3" y1="380.942" y2="380.942"/><linearGradient id="SVGID_8_" gradientUnits="userSpaceOnUse" x1="201.361" x2="259.507" xlink:href="#lg3" y1="380.942" y2="380.942"/><linearGradient id="SVGID_9_" gradientUnits="userSpaceOnUse" x1="230.434" x2="472.928" xlink:href="#lg3" y1="396.915" y2="396.915"/><linearGradient id="lg4"><stop offset=".0206" stop-color="#77e4d3"/><stop offset="1" stop-color="#01c2a0"/></linearGradient><linearGradient id="SVGID_10_" gradientUnits="userSpaceOnUse" x1="308.816" x2="461.259" xlink:href="#lg4" y1="107.524" y2="107.524"/><linearGradient id="SVGID_11_" gradientUnits="userSpaceOnUse" x1="40.741" x2="193.185" xlink:href="#lg4" y1="394.476" y2="394.476"/><g><path d="m498.406 380.942c0-79.571-65.821-144.306-146.725-144.306s-146.725 64.735-146.725 144.306z" fill="url(#SVGID_1_)"/><path d="m351.681 341.45-146.725 39.492v49.253c0 24.639 19.974 44.614 44.614 44.614h204.223c24.639 0 44.614-19.974 44.614-44.614v-49.253z" fill="url(#SVGID_2_)"/><path d="m3.594 146.54c0-79.571 65.821-144.306 146.725-144.306s146.725 64.735 146.725 144.306z" fill="url(#SVGID_3_)"/><g><path d="m222.687 66.92c-2.141 0-4.297-.684-6.12-2.097-5.55-4.303-11.533-8.069-17.781-11.194-4.939-2.471-6.941-8.478-4.471-13.417s8.477-6.941 13.417-4.471c7.413 3.708 14.509 8.174 21.089 13.275 4.365 3.384 5.16 9.666 1.776 14.03-1.971 2.543-4.925 3.874-7.91 3.874z" fill="#f3cac0"/></g><g><path d="m170.802 44.016c-.571 0-1.149-.049-1.73-.15-4.1-.715-8.3-1.202-12.484-1.448-5.513-.324-9.72-5.056-9.396-10.569s5.055-9.721 10.569-9.396c4.94.29 9.902.866 14.748 1.711 5.441.949 9.082 6.128 8.133 11.569-.848 4.859-5.071 8.283-9.84 8.283z" fill="#f3cac0"/></g><circle cx="29.073" cy="146.54" fill="url(#SVGID_4_)" r="29.073"/><circle cx="271.566" cy="146.54" fill="url(#SVGID_5_)" r="29.073"/><path d="m266.088 111.121c-2.563-8.054-10.029-13.563-18.481-13.527-76.185.329-123.979-27.508-146.895-45.514-6.802-5.345-16.359-5.613-23.317-.473-29.347 21.679-48.323 56.135-48.323 94.935 0 65.623 54.29 118.822 121.247 118.822 66.968 0 121.247-53.199 121.247-118.822 0-12.338-1.917-24.235-5.478-35.421z" fill="url(#SVGID_6_)"/><g><ellipse cx="64.263" cy="173.45" fill="#fb99ac" rx="14.625" ry="11.753"/><ellipse cx="236.375" cy="173.45" fill="#fb99ac" rx="14.625" ry="11.753"/><circle cx="89.337" cy="144.449" fill="#fff" r="29.001"/><ellipse cx="101.053" cy="144.449" fill="#383842" rx="17.285" ry="17.285" transform="matrix(.23 -.973 .973 .23 -62.749 209.612)"/><circle cx="211.301" cy="144.449" fill="#fff" r="29.001"/><g fill="#383842"><ellipse cx="222.957" cy="144.449" rx="17.285" ry="17.285" transform="matrix(.707 -.707 .707 .707 -36.839 199.962)"/><ellipse cx="150.319" cy="166.434" rx="12.976" ry="16.991"/></g></g><g><path d="m441.077 315.726c-2.866 0-5.711-1.226-7.688-3.6-3.12-3.745-6.528-7.304-10.131-10.579-4.087-3.715-4.389-10.039-.674-14.126 3.715-4.086 10.039-4.389 14.126-.674 4.283 3.893 8.336 8.125 12.045 12.577 3.535 4.243 2.961 10.549-1.282 14.084-1.87 1.558-4.14 2.318-6.396 2.318z" fill="#918ca1"/></g><g><path d="m398.355 286.192c-1.315 0-2.65-.26-3.935-.811-7.618-3.266-15.594-5.649-23.708-7.084-5.438-.962-9.067-6.151-8.105-11.589s6.151-9.061 11.589-8.105c9.622 1.703 19.078 4.527 28.103 8.396 5.076 2.176 7.427 8.055 5.251 13.131-1.625 3.791-5.316 6.062-9.195 6.062z" fill="#918ca1"/></g><circle cx="472.927" cy="380.942" fill="url(#SVGID_7_)" r="29.073"/><circle cx="230.434" cy="380.942" fill="url(#SVGID_8_)" r="29.073"/><path d="m467.502 345.703c-2.497-7.889-9.36-13.654-17.589-14.52-43.707-4.6-71.963-21.6-86.475-33.041-6.895-5.436-16.62-5.436-23.515 0-14.512 11.441-42.768 28.442-86.475 33.041-8.229.866-15.091 6.631-17.589 14.52-3.526 11.138-5.426 22.975-5.426 35.242 0 65.623 54.279 118.822 121.247 118.822 66.958 0 121.247-53.199 121.247-118.822.001-12.268-1.899-24.105-5.425-35.242z" fill="url(#SVGID_9_)"/><g><ellipse cx="437.737" cy="407.853" fill="#fb99ac" rx="14.625" ry="11.753"/><ellipse cx="265.625" cy="407.853" fill="#fb99ac" rx="14.625" ry="11.753"/><circle cx="412.663" cy="378.852" fill="#fff" r="29.001"/><ellipse cx="400.947" cy="378.852" fill="#383842" rx="17.285" ry="17.285" transform="matrix(.973 -.23 .23 .973 -76.317 102.253)"/><circle cx="290.699" cy="378.852" fill="#fff" r="29.001"/><g fill="#383842"><ellipse cx="279.043" cy="378.852" rx="17.285" ry="17.285" transform="matrix(.707 -.707 .707 .707 -186.159 308.277)"/><ellipse cx="351.681" cy="400.836" rx="12.976" ry="16.991"/></g></g><path d="m398.096 68.552h-20.224v-16.384c0-7.635-8.758-11.952-14.813-7.302l-50.644 38.884c-4.8 3.685-4.8 10.92 0 14.605l50.644 38.884c6.056 4.649 14.813.332 14.813-7.303v-16.384h20.223c10.031 0 18.163 8.132 18.163 18.163v30.105c0 5.679 4.604 10.283 10.283 10.283h24.434c5.679 0 10.283-4.604 10.283-10.283v-30.105c.001-34.884-28.278-63.163-63.162-63.163z" fill="url(#SVGID_10_)"/><path d="m103.904 433.448h20.224v16.384c0 7.635 8.758 11.952 14.813 7.302l50.644-38.884c4.8-3.685 4.8-10.92 0-14.605l-50.644-38.884c-6.056-4.649-14.813-.332-14.813 7.303v16.384h-20.223c-10.031 0-18.163-8.132-18.163-18.163v-30.105c0-5.679-4.604-10.283-10.283-10.283h-24.435c-5.679 0-10.283 4.604-10.283 10.283v30.105c0 34.884 28.279 63.163 63.163 63.163z" fill="url(#SVGID_11_)"/></g></svg>