<svg id="Capa_1" enable-background="new 0 0 502 502" height="512" viewBox="0 0 502 502" width="512" xmlns="http://www.w3.org/2000/svg" xmlns:xlink="http://www.w3.org/1999/xlink"><linearGradient id="SVGID_1_" gradientUnits="userSpaceOnUse" x1="394.912" x2="394.912" y1="221.904" y2="7.728"><stop offset=".0223" stop-color="#8959c3"/><stop offset="1" stop-color="#a27ccf"/></linearGradient><linearGradient id="SVGID_2_" gradientUnits="userSpaceOnUse" x1="107.088" x2="107.088" y1="7.728" y2="221.904"><stop offset=".0212" stop-color="#ffb1db"/><stop offset="1" stop-color="#fd86c8"/></linearGradient><linearGradient id="SVGID_3_" gradientUnits="userSpaceOnUse" x1="251" x2="251" y1="358.088" y2="143.912"><stop offset=".0206" stop-color="#77e4d3"/><stop offset="1" stop-color="#01c2a0"/></linearGradient><linearGradient id="SVGID_4_" gradientUnits="userSpaceOnUse" x1="107.088" x2="107.088" y1="494.273" y2="280.096"><stop offset=".0223" stop-color="#f7f0a9"/><stop offset=".9994" stop-color="#f4e46a"/></linearGradient><linearGradient id="SVGID_5_" gradientUnits="userSpaceOnUse" x1="394.912" x2="394.912" y1="494.273" y2="280.096"><stop offset=".0005580357" stop-color="#5bd4fb"/><stop offset=".9777" stop-color="#a2e4fd"/></linearGradient><g><circle cx="394.912" cy="114.816" fill="url(#SVGID_1_)" r="107.088"/><circle cx="107.088" cy="114.816" fill="url(#SVGID_2_)" r="107.088"/><ellipse cx="35.405" cy="117.991" fill="#fd75be" rx="12.183" ry="9.79"/><ellipse cx="178.771" cy="117.991" fill="#fd75be" rx="12.183" ry="9.79"/><circle cx="56.291" cy="93.833" fill="#fff" r="24.158"/><circle cx="157.885" cy="93.833" fill="#fff" r="24.158"/><path d="m64.271 103.724c-2.647 0-5.214-1.405-6.579-3.889-.303-.55-.773-.829-1.401-.829s-1.099.279-1.401.829c-1.995 3.63-6.557 4.955-10.185 2.96-3.63-1.996-4.955-6.556-2.96-10.186 2.916-5.307 8.49-8.603 14.546-8.603s11.63 3.296 14.546 8.603c1.995 3.63.67 8.19-2.96 10.186-1.146.63-2.384.929-3.606.929z" fill="#383842"/><path d="m165.866 103.724c-2.647 0-5.214-1.404-6.579-3.888-.303-.55-.774-.829-1.402-.829-.627 0-1.099.279-1.401.829-1.995 3.629-6.556 4.954-10.186 2.959-3.63-1.996-4.954-6.556-2.959-10.186 2.918-5.306 8.491-8.603 14.546-8.603 6.056 0 11.629 3.296 14.547 8.603 1.995 3.629.671 8.19-2.959 10.186-1.146.629-2.385.929-3.607.929z" fill="#383842"/><g><path d="m116.607 126.299h-19.038c-5.308 0-9.612-4.303-9.612-9.612 0-5.308 4.303-9.612 9.612-9.612h19.038c5.308 0 9.612 4.303 9.612 9.612 0 5.309-4.303 9.612-9.612 9.612z" fill="#383842"/></g><path d="m355.653 192.317c6.117-6.115 6.853-15.85 1.584-22.71-17.204-22.399-41.331-39.217-69.145-47.25 1.529 21.975 9.687 42.122 22.488 58.456l23.997 14.172c6.812 4.022 15.482 2.924 21.076-2.668z" fill="#8959c3"/><circle cx="251" cy="251" fill="url(#SVGID_3_)" r="107.088"/><g><path d="m262.12 183.708c-3.221-.583-6.518-.936-9.8-1.05-5.478-.19-9.765-4.786-9.574-10.264.19-5.478 4.746-9.741 10.264-9.574 4.233.147 8.488.603 12.644 1.355 5.394.976 8.975 6.14 7.999 11.534-.978 5.409-6.154 8.973-11.533 7.999z" fill="#adede3"/></g><g><path d="m302.732 207.551c-3.82-4.636-8.238-8.594-13.131-11.764-4.601-2.98-5.914-9.125-2.935-13.726 2.98-4.6 9.125-5.915 13.726-2.934 6.602 4.276 12.544 9.592 17.659 15.8 3.485 4.23 2.882 10.486-1.348 13.971-4.211 3.471-10.47 2.902-13.971-1.347z" fill="#adede3"/></g><path d="m210.15 301.818c-5.785-6.972-16.368-7.347-22.774-.941-4.589 4.589-5.831 11.553-3.111 17.446l11.194 24.25c12.577 7.645 26.854 12.772 42.132 14.681-4.747-20.71-14.307-39.606-27.441-55.436z" fill="#01ab8b"/><circle cx="107.088" cy="387.184" fill="url(#SVGID_4_)" r="107.088"/><ellipse cx="179.21" cy="270.291" fill="#fb99ac" rx="12.201" ry="9.805"/><ellipse cx="322.79" cy="270.291" fill="#fb99ac" rx="12.201" ry="9.805"/><circle cx="200.127" cy="246.097" fill="#fff" r="24.194"/><circle cx="301.873" cy="246.097" fill="#fff" r="24.194"/><g fill="#383842"><circle cx="200.127" cy="246.097" r="14.42"/><circle cx="301.873" cy="246.097" r="14.42"/></g><path d="m251 271.982c-4.508 0-9.015-1.705-12.692-5.114-2.025-1.877-2.145-5.041-.268-7.066 1.879-2.025 5.041-2.145 7.066-.267 3.525 3.268 8.262 3.268 11.787 0 2.026-1.877 5.188-1.758 7.066.267 1.877 2.025 1.758 5.188-.268 7.066-3.676 3.41-8.183 5.114-12.691 5.114z" fill="#383842"/><ellipse cx="35.405" cy="400.894" fill="#fb99ac" rx="12.183" ry="9.79"/><ellipse cx="178.771" cy="400.894" fill="#fb99ac" rx="12.183" ry="9.79"/><path d="m107.088 409.203c-5.259 0-10.517-1.758-14.905-5.273-4.069-3.26-4.726-9.202-1.465-13.271 3.26-4.07 9.202-4.725 13.271-1.465 1.824 1.462 4.373 1.462 6.197 0 4.068-3.26 10.01-2.604 13.271 1.465 3.26 4.069 2.604 10.011-1.465 13.271-4.387 3.515-9.645 5.273-14.904 5.273z" fill="#383842"/><path d="m80.396 375.123c-.808-12.354-11.094-22.218-23.47-22.536-13.631-.349-24.792 10.597-24.792 24.149 0 .688.029 1.369.085 2.042.344 4.086 4.777 6.521 8.441 4.68.768-.385 1.578-.732 2.407-1.06l-.02-.007 13.244-7.544 13.244 7.544-.02.007c.828.327 1.637.673 2.403 1.058 3.706 1.861 8.125-.654 8.455-4.788.091-1.159.101-2.343.023-3.545z" fill="#fff"/><path d="m56.291 379.972c4.833 0 9.358.883 13.244 2.42.743-1.737 1.154-3.646 1.154-5.655 0-7.952-6.446-14.398-14.398-14.398s-14.398 6.446-14.398 14.398c0 2.009.411 3.918 1.154 5.655 3.886-1.538 8.411-2.42 13.244-2.42z" fill="#383842"/><path d="m181.99 375.123c-.808-12.354-11.094-22.218-23.47-22.536-13.632-.349-24.792 10.597-24.792 24.149 0 .688.029 1.369.086 2.042.344 4.086 4.776 6.521 8.441 4.68.768-.385 1.578-.732 2.408-1.06l-.021-.007 13.244-6.98 13.244 6.98-.021.007c.828.327 1.637.673 2.403 1.058 3.706 1.861 8.125-.654 8.454-4.788.093-1.159.102-2.343.024-3.545z" fill="#fff"/><path d="m157.885 379.972c4.833 0 9.358.883 13.244 2.42.743-1.737 1.154-3.646 1.154-5.655 0-7.952-6.446-14.398-14.398-14.398s-14.398 6.446-14.398 14.398c0 2.009.411 3.918 1.154 5.655 3.886-1.538 8.411-2.42 13.244-2.42z" fill="#383842"/><circle cx="394.912" cy="387.184" fill="url(#SVGID_5_)" r="107.088"/><g><path d="m397.237 474.469c-.12 0-.239-.001-.359-.001-5.482-.027-9.903-4.493-9.876-9.974.027-5.465 4.466-9.876 9.924-9.876.106-.001.207.001.31.001 3.461 0 6.987-.346 10.485-1.028 5.372-1.05 10.592 2.462 11.641 7.842s-2.462 10.592-7.842 11.641c-4.746.925-9.549 1.395-14.283 1.395z" fill="#bde5f6"/></g><g><path d="m430.966 455.19c-3.061-4.548-1.855-10.715 2.693-13.775 5.207-3.505 10.04-7.691 14.367-12.443 3.692-4.052 9.969-4.346 14.021-.657 4.053 3.691 4.347 9.968.657 14.021-5.396 5.926-11.439 11.157-17.963 15.547-4.507 3.037-10.689 1.893-13.775-2.693z" fill="#bde5f6"/></g><ellipse cx="324.837" cy="398.357" fill="#fb99ac" rx="12.183" ry="9.79"/><ellipse cx="468.203" cy="398.357" fill="#fb99ac" rx="12.183" ry="9.79"/><circle cx="345.723" cy="374.23" fill="#cbcbcb" r="24.127"/><path d="m321.596 375.411c.632 12.779 11.192 22.945 24.127 22.945s23.495-10.167 24.127-22.945z" fill="#fff"/><path d="m331.379 375.411c.616 7.384 6.8 13.186 14.343 13.186s13.727-5.802 14.343-13.186z" fill="#383842"/><circle cx="447.317" cy="374.23" fill="#cbcbcb" r="24.127"/><path d="m423.19 375.411c.632 12.779 11.192 22.945 24.127 22.945s23.495-10.167 24.127-22.945z" fill="#fff"/><path d="m432.973 375.411c.616 7.384 6.8 13.186 14.343 13.186s13.727-5.802 14.343-13.186z" fill="#383842"/><path d="m387.242 402.549c-2.016 0-4.024-.807-5.502-2.401-2.816-3.038-2.637-7.783.401-10.599 8.332-7.724 20.427-7.723 28.757 0 3.037 2.816 3.217 7.562.4 10.599-2.815 3.037-7.561 3.217-10.6.401-2.537-2.354-5.819-2.355-8.36 0-1.442 1.339-3.272 2-5.096 2z" fill="#383842"/><ellipse cx="323.229" cy="117.386" fill="#fb99ac" rx="12.183" ry="9.79"/><ellipse cx="466.595" cy="117.386" fill="#fb99ac" rx="12.183" ry="9.79"/><circle cx="344.115" cy="93.229" fill="#fff" r="24.158"/><ellipse cx="334.355" cy="93.229" fill="#383842" rx="14.398" ry="14.398" transform="matrix(.707 -.707 .707 .707 32.008 263.731)"/><circle cx="445.709" cy="93.229" fill="#fff" r="24.158"/><g fill="#383842"><ellipse cx="435.949" cy="93.229" rx="14.398" ry="14.398" transform="matrix(.23 -.973 .973 .23 245.054 496.096)"/><path d="m401.103 99.096h-12.382c-2.453 0-4.615 1.612-5.307 3.965-2.18 7.414-4.683 22.633 11.498 22.633s13.677-15.219 11.498-22.633c-.692-2.353-2.854-3.965-5.307-3.965z"/></g></g></svg>