<svg id="Capa_1" enable-background="new 0 0 502 502" height="512" viewBox="0 0 502 502" width="512" xmlns="http://www.w3.org/2000/svg" xmlns:xlink="http://www.w3.org/1999/xlink"><linearGradient id="lg1"><stop offset=".0223" stop-color="#8959c3"/><stop offset="1" stop-color="#a27ccf"/></linearGradient><linearGradient id="SVGID_1_" gradientUnits="userSpaceOnUse" x1="371.66" x2="371.66" xlink:href="#lg1" y1="312.428" y2="51.748"/><linearGradient id="lg2"><stop offset="0" stop-color="#fd86c8"/><stop offset=".9788" stop-color="#ffb1db"/></linearGradient><linearGradient id="SVGID_2_" gradientUnits="userSpaceOnUse" x1="130.34" x2="130.34" xlink:href="#lg2" y1="450.252" y2="297.691"/><linearGradient id="SVGID_3_" gradientUnits="userSpaceOnUse" x1="130.34" x2="130.34" xlink:href="#lg2" y1="312.428" y2="51.748"/><linearGradient id="SVGID_4_" gradientUnits="userSpaceOnUse" x1="309.985" x2="309.985" xlink:href="#lg1" y1="450.252" y2="297.691"/><linearGradient id="SVGID_5_" gradientUnits="userSpaceOnUse" x1="437.214" x2="437.214" xlink:href="#lg2" y1="353.419" y2="276.069"/><g><circle cx="371.66" cy="182.088" fill="url(#SVGID_1_)" r="130.34"/><g><path d="m459.997 167.015c-1.444-8.672-4.089-17.068-7.865-24.955-2.429-5.076-.284-11.16 4.792-13.589 5.076-2.43 11.16-.285 13.59 4.792 4.601 9.615 7.826 19.846 9.584 30.406.924 5.551-2.827 10.8-8.378 11.724-5.563.923-10.8-2.838-11.723-8.378z" fill="#8959c3"/></g><g><path d="m432.61 115.758c-2.531-2.238-5.21-4.294-7.963-6.111-4.695-3.1-5.99-9.42-2.89-14.116 3.099-4.695 9.418-5.991 14.117-2.89 3.547 2.341 6.99 4.983 10.234 7.852 4.216 3.727 4.611 10.167.884 14.382-3.725 4.214-10.166 4.612-14.382.883z" fill="#8959c3"/></g><path d="m260.68 450.252c0-117.471-70.098-152.561-70.098-152.561h-120.484s-70.098 35.09-70.098 152.561z" fill="url(#SVGID_2_)"/><path d="m128.445 336.284c-17.347 0-28.316 18.784-19.641 33.806 11.881 20.573 34.115 34.448 59.533 34.448h19.428c-2.33 14.567-3.503 29.839-3.503 45.714h76.417c0-42.166-9.032-73.712-20.612-96.834l-108.14-16.864c-1.151-.18-2.316-.27-3.482-.27z" fill="#fd75be"/><path d="m64.097 389.339c-4.365 0-7.903 3.538-7.903 7.903v53.01h15.806v-53.01c0-4.365-3.538-7.903-7.903-7.903z" fill="#fd75be"/><circle cx="130.34" cy="182.088" fill="url(#SVGID_3_)" r="130.34"/><g><ellipse cx="40.794" cy="217.715" fill="#fd75be" rx="15.219" ry="12.23"/><ellipse cx="219.886" cy="217.715" fill="#fd75be" rx="15.219" ry="12.23"/><circle cx="66.884" cy="187.538" fill="#fff" r="30.177"/><circle cx="193.795" cy="187.538" fill="#fff" r="30.177"/><g fill="#383842"><g><circle cx="66.884" cy="187.538" r="17.986"/><circle cx="193.795" cy="187.538" r="17.986"/></g><path d="m130.34 218.58c-5.324 0-10.648-2.014-14.991-6.041-2.025-1.877-2.145-5.041-.267-7.065 1.878-2.025 5.042-2.145 7.066-.267 4.823 4.471 11.561 4.471 16.384 0 2.025-1.879 5.188-1.758 7.066.267s1.758 5.188-.267 7.065c-4.343 4.027-9.667 6.041-14.991 6.041z"/></g></g><path d="m492.83 450.252c0-117.471-70.098-152.561-70.098-152.561h-110.294-147.157c-21.064 0-38.14 17.076-38.14 38.14 0 21.064 17.076 38.14 38.14 38.14h78.813c-7.116 20.33-11.943 45.467-11.943 76.28h260.679z" fill="url(#SVGID_4_)"/><path d="m405.146 346.811c-10.513 10.513-6.526 28.476 7.5 33.405 7.052 2.478 14.55 3.769 22.246 3.769 16.215 0 31.539-5.746 43.683-16.246-5.862-14.971-12.937-27.109-20.054-36.809l-43.778 10.507c-3.633.873-6.955 2.732-9.597 5.374z" fill="#8959c3"/><path d="m466.737 292.445-7.224-7.224c-12.202-12.202-31.985-12.202-44.187 0l-6.139 6.139c-14.197 14.197-14.197 37.214 0 51.411 14.197 14.197 37.214 14.197 51.411 0l6.139-6.139c12.202-12.202 12.202-31.985 0-44.187z" fill="url(#SVGID_5_)"/></g></svg>