<svg id="Capa_1" enable-background="new 0 0 502 502" height="512" viewBox="0 0 502 502" width="512" xmlns="http://www.w3.org/2000/svg" xmlns:xlink="http://www.w3.org/1999/xlink"><linearGradient id="SVGID_1_" gradientUnits="userSpaceOnUse" x1="251" x2="251" y1="391.75" y2="0"><stop offset=".0212" stop-color="#f3385d"/><stop offset="1" stop-color="#fd869c"/></linearGradient><linearGradient id="SVGID_2_" gradientUnits="userSpaceOnUse" x1="251" x2="251" y1="213.831" y2="502"><stop offset=".0212" stop-color="#ffb1db"/><stop offset="1" stop-color="#fd86c8"/></linearGradient><g><path d="m251 47.845c-161.555-157.888-426.795 106.587-35.963 334.186 22.252 12.958 49.674 12.958 71.926 0 390.832-227.599 125.592-492.074-35.963-334.186z" fill="url(#SVGID_1_)"/><path d="m145.847 218.878c-8.084-6.311-19.818-4.872-26.542 2.873-3.591 4.137-6.876 8.535-9.821 13.149-3.521 5.516-8.711 9.724-14.853 11.984-10.043 3.695-19.505 8.847-28.099 15.31 12.005 14.67 26.206 29.521 42.81 44.427l29.591-24.862 13.4-41.902c2.428-7.586-.072-15.972-6.486-20.979z" fill="#f3385d"/><path d="m444.311 378.741c3.348-8.835 5.196-18.408 5.196-28.416 0-41.964-32.227-76.381-73.279-79.903-10.087-32.771-40.599-56.591-76.679-56.591-18.251 0-35.07 6.105-48.549 16.37-13.48-10.265-30.298-16.37-48.549-16.37-36.08 0-66.591 23.82-76.679 56.591-41.052 3.522-73.279 37.939-73.279 79.903 0 10.008 1.848 19.581 5.196 28.416-20.482 11.106-34.421 32.801-34.421 57.687.001 36.161 29.412 65.572 65.573 65.572h324.317c36.161 0 65.573-29.411 65.573-65.573 0-24.886-13.938-46.581-34.42-57.686z" fill="url(#SVGID_2_)"/><g><path d="m329.127 265.602c-5.352-5.517-12.273-9.572-19.488-11.418-5.226-1.337-8.379-6.657-7.043-11.884 1.337-5.226 6.653-8.382 11.885-7.043 10.814 2.766 20.728 8.556 28.669 16.743 3.757 3.872 3.662 10.057-.211 13.813-3.872 3.754-10.055 3.662-13.812-.211z" fill="#fdc6e3"/></g><g><path d="m256.991 262.337c-3.218-4.331-2.314-10.449 2.017-13.666 3.557-2.642 8.331-6.032 13.716-8.812 4.791-2.474 10.686-.596 13.161 4.199 2.474 4.793.595 10.686-4.198 13.161-4.135 2.134-8.066 4.935-11.03 7.136-4.331 3.215-10.45 2.312-13.666-2.018z" fill="#fdc6e3"/></g><g fill="#fd75be"><path d="m137.853 372.948c-6.954-5.383-14.819-9.64-23.32-12.518 6.389-4.736 12.019-11.084 14.64-19.521 1.2-3.864-.959-7.969-4.823-9.17-3.862-1.199-7.969.959-9.17 4.823-2.604 8.383-10.994 13.858-17.573 16.975-2.329 1.103-4.607 1.997-6.669 2.714h.001c-.699-.018-1.396-.044-2.099-.044-12.593 0-24.505 2.909-35.11 8.08.877 4.992 2.206 9.825 3.96 14.453 9.272-5.027 19.884-7.886 31.152-7.886 15.067 0 28.958 5.118 40.032 13.698 2.898 2.245 7.027 1.937 9.619-.655 3.105-3.105 2.833-8.26-.64-10.949z"/><path d="m242.022 295.14c-8.47-.043-13.757-1.941-17.051-4.209-3.46-2.382-5.158-6.657-4.434-10.795 3.551-20.288 14.726-37.951 30.463-49.936-4.097-3.12-8.501-5.853-13.162-8.148-17.069 14.651-28.889 35.251-32.21 58.554-.651 4.57-3.33 8.667-7.326 10.976-3.391 1.96-8.383 3.516-15.696 3.557-3.983.023-7.467 3.054-7.623 7.033-.163 4.18 3.177 7.619 7.32 7.619 16.057 0 25.092-5.46 30.008-10.478 4.916 5.018 13.951 10.478 30.008 10.478 4.141 0 7.48-3.437 7.32-7.614-.152-3.978-3.635-7.017-7.617-7.037z"/><path d="m413.161 356.208c-3.181 0-6.314.198-9.398.559-8.319-9.809-22.509-19.71-46.347-21.609-4.059-.337-7.563 2.688-7.885 6.721-.321 4.033 2.688 7.563 6.721 7.885 13.951 1.112 23.706 5.468 30.526 10.894-8.239 2.874-15.865 7.054-22.631 12.292-3.473 2.688-3.745 7.844-.639 10.949 2.592 2.592 6.721 2.901 9.619.655 11.074-8.581 24.965-13.698 40.032-13.698 11.268 0 21.88 2.859 31.152 7.886 1.754-4.628 3.084-9.461 3.96-14.453-10.606-5.173-22.517-8.081-35.11-8.081z"/><path d="m387.764 439.928c-6.506 20.573-19.193 29.243-29.1 32.896-5.692-8.498-9.466-18.385-10.66-29.047-.451-4.031-4.019-6.969-8.052-6.544-4.048.427-6.966 4.073-6.516 8.118 2.601 23.371 15.292 43.732 33.594 56.648h46.128c-17.183 0-32.833-6.655-44.536-17.51 11.166-5.276 25.631-16.488 33.113-40.143 1.219-3.858-.919-7.975-4.776-9.195-3.859-1.216-7.974.92-9.195 4.777z"/><path d="m114.236 439.928c6.506 20.573 19.193 29.243 29.1 32.896 5.692-8.498 9.466-18.385 10.66-29.047.451-4.031 4.019-6.969 8.052-6.544 4.048.427 6.966 4.073 6.516 8.118-2.601 23.371-15.292 43.732-33.594 56.648h-46.129c17.183 0 32.833-6.655 44.536-17.51-11.166-5.276-25.631-16.488-33.113-40.143-1.219-3.858.919-7.975 4.776-9.195 3.86-1.216 7.975.92 9.196 4.777z"/></g><g><ellipse cx="136.306" cy="170.653" fill="#fdaece" rx="19.493" ry="15.665"/><ellipse cx="365.694" cy="170.653" fill="#fdaece" rx="19.492" ry="15.665"/><circle cx="169.724" cy="132.001" fill="#fff" r="38.652"/><circle cx="332.276" cy="132.001" fill="#fff" r="38.652"/><g fill="#383842"><g><circle cx="169.724" cy="132.001" r="23.037"/><circle cx="332.276" cy="132.001" r="23.037"/></g><path d="m251 170.347c-6.48 0-12.959-2.451-18.246-7.352-2.025-1.878-2.145-5.041-.267-7.066s5.041-2.144 7.066-.268c6.741 6.25 16.155 6.25 22.895 0 2.023-1.875 5.189-1.758 7.065.268 1.878 2.024 1.759 5.188-.267 7.066-5.286 4.901-11.766 7.352-18.246 7.352z"/></g></g></g></svg>