<svg id="Capa_1" enable-background="new 0 0 502 502" height="512" viewBox="0 0 502 502" width="512" xmlns="http://www.w3.org/2000/svg" xmlns:xlink="http://www.w3.org/1999/xlink"><linearGradient id="SVGID_1_" gradientUnits="userSpaceOnUse" x1="251.344" x2="251.344" y1="502" y2="381.415"><stop offset=".0212" stop-color="#bbe3f4"/><stop offset="1" stop-color="#78c5e6"/></linearGradient><linearGradient id="SVGID_2_" gradientUnits="userSpaceOnUse" x1="251.344" x2="251.344" y1="219.619" y2="0"><stop offset="0" stop-color="#4f4c5f"/><stop offset=".9783" stop-color="#6a647f"/></linearGradient><linearGradient id="lg1"><stop offset="0" stop-color="#d89b80"/><stop offset=".9995" stop-color="#c5836a"/></linearGradient><radialGradient id="SVGID_3_" cx="69.6" cy="229.856" gradientUnits="userSpaceOnUse" r="45.574" xlink:href="#lg1"/><radialGradient id="SVGID_4_" cx="433.089" cy="229.856" gradientUnits="userSpaceOnUse" r="45.574" xlink:href="#lg1"/><linearGradient id="SVGID_5_" gradientUnits="userSpaceOnUse" x1="251.344" x2="251.344" y1="401.36" y2="92.523"><stop offset=".0005103643" stop-color="#c5836a"/><stop offset="1" stop-color="#d89b80"/></linearGradient><linearGradient id="lg2"><stop offset=".0223" stop-color="#fac986"/><stop offset=".9994" stop-color="#f5aa3e"/></linearGradient><radialGradient id="SVGID_6_" cx="100.13" cy="379.409" gradientUnits="userSpaceOnUse" r="84.53" xlink:href="#lg2"/><radialGradient id="SVGID_7_" cx="401.87" cy="379.409" gradientUnits="userSpaceOnUse" r="84.53" xlink:href="#lg2"/><linearGradient id="SVGID_8_" gradientUnits="userSpaceOnUse" x1="366.783" x2="366.783" xlink:href="#lg1" y1="502" y2="432.268"/><linearGradient id="SVGID_9_" gradientUnits="userSpaceOnUse" x1="135.906" x2="135.906" xlink:href="#lg1" y1="502" y2="432.268"/><g><g><path d="m146.254 502h210.182l17.699-68.949c-15.779-36.483-39.916-51.637-39.916-51.637h-165.749s-24.137 15.154-39.916 51.637z" fill="url(#SVGID_1_)"/></g><path d="m181.503 416.373c-2.924-1.254-6.086-1.857-9.267-1.769l-24.381.674-19.301 17.773 13.582 52.909c19.102-7.557 35.695-20.113 48.17-36.043 8.83-11.275 4.36-27.901-8.803-33.544z" fill="#59c2e7"/><path d="m31.726 219.619c0-58.663 22.844-113.813 64.325-155.294s96.631-64.325 155.293-64.325 113.814 22.845 155.294 64.325 64.325 96.631 64.325 155.294z" fill="url(#SVGID_2_)"/><g><path d="m388.042 103.112c-6.894-8.08-14.525-15.582-22.682-22.298-4.264-3.511-4.874-9.813-1.363-14.076 3.512-4.263 9.812-4.875 14.076-1.363 9.059 7.459 17.531 15.788 25.184 24.756 3.585 4.201 3.085 10.513-1.116 14.098-4.203 3.584-10.513 3.085-14.099-1.117z" fill="#918ca1"/></g><g><path d="m336.488 61.371c-5.009-2.708-10.19-5.194-15.4-7.39-5.089-2.145-7.477-8.009-5.331-13.099s8.011-7.475 13.099-5.331c5.802 2.445 11.57 5.213 17.145 8.226 4.858 2.626 6.667 8.694 4.041 13.552-2.627 4.858-8.693 6.669-13.554 4.042z" fill="#918ca1"/></g><circle cx="69.6" cy="229.856" fill="url(#SVGID_3_)" r="45.574"/><circle cx="433.089" cy="229.856" fill="url(#SVGID_4_)" r="45.574"/><path d="m423.211 160.382c-6.105-17.712-23.414-29.217-42.081-27.627-54.64 4.655-89.272-14.811-108.887-32.287-11.889-10.593-29.907-10.593-41.797 0-19.615 17.476-54.247 36.942-108.887 32.287-18.664-1.59-35.974 9.911-42.078 27.62-6.402 18.573-9.877 38.51-9.876 59.258.006 99.863 81.532 181.541 181.395 181.727 100.528.186 182.084-81.255 182.084-181.74 0-20.74-3.473-40.67-9.873-59.238z" fill="url(#SVGID_5_)"/><ellipse cx="128.113" cy="267.199" fill="#fb99ac" rx="20.944" ry="16.831"/><ellipse cx="374.576" cy="267.199" fill="#fb99ac" rx="20.944" ry="16.831"/><circle cx="164.018" cy="225.669" fill="#fff" r="41.53"/><circle cx="338.671" cy="225.669" fill="#fff" r="41.53"/><g fill="#383842"><circle cx="164.018" cy="225.669" r="24.752"/><circle cx="338.671" cy="225.669" r="24.752"/></g><path d="m251.345 266.495c-6.872 0-13.745-2.6-19.352-7.797-2.025-1.878-2.145-5.041-.268-7.066 1.879-2.025 5.041-2.143 7.066-.268 7.391 6.854 17.714 6.853 25.104.001 2.024-1.878 5.189-1.758 7.065.267 1.878 2.024 1.759 5.188-.267 7.065-5.604 5.199-12.476 7.798-19.348 7.798z" fill="#383842"/><circle cx="100.13" cy="379.409" fill="url(#SVGID_6_)" r="84.53"/><ellipse cx="47.07" cy="383.667" fill="#fb99ac" rx="9.018" ry="7.247"/><ellipse cx="153.191" cy="383.667" fill="#fb99ac" rx="9.018" ry="7.247"/><circle cx="62.53" cy="365.785" fill="#fff" r="17.882"/><circle cx="137.731" cy="365.785" fill="#fff" r="17.882"/><path d="m68.439 375.055c-2.262.001-4.464-1.024-5.909-2.872-2.227 2.845-6.247 3.738-9.516 1.943-3.63-1.995-4.954-6.556-2.959-10.186 2.502-4.551 7.281-7.378 12.475-7.378s9.973 2.827 12.475 7.378c1.995 3.63.671 8.19-2.959 10.186-1.147.63-2.385.929-3.607.929z" fill="#383842"/><path d="m143.64 375.055c-2.262.001-4.464-1.024-5.909-2.872-2.227 2.845-6.248 3.738-9.516 1.943-3.63-1.995-4.954-6.556-2.959-10.186 2.502-4.551 7.281-7.378 12.475-7.378s9.973 2.827 12.475 7.378c1.995 3.63.671 8.19-2.959 10.186-1.147.63-2.386.929-3.607.929z" fill="#383842"/><g><path d="m107.177 389.817h-14.093c-3.929 0-7.115-3.185-7.115-7.115 0-3.929 3.185-7.115 7.115-7.115h14.092c3.929 0 7.115 3.185 7.115 7.115 0 3.929-3.185 7.115-7.114 7.115z" fill="#383842"/></g><circle cx="401.87" cy="379.409" fill="url(#SVGID_7_)" r="84.53"/><ellipse cx="348.809" cy="383.676" fill="#fb99ac" rx="9.006" ry="7.238"/><ellipse cx="454.797" cy="383.676" fill="#fb99ac" rx="9.006" ry="7.238"/><circle cx="364.25" cy="365.839" fill="#d6d5d8" r="17.836"/><path d="m346.414 366.713c.467 9.447 8.274 16.963 17.836 16.963 9.563 0 17.369-7.516 17.836-16.963z" fill="#fff"/><path d="m353.646 366.713c.456 5.459 5.027 9.748 10.604 9.748 5.576 0 10.148-4.289 10.604-9.748z" fill="#383842"/><circle cx="439.356" cy="365.839" fill="#d6d5d8" r="17.836"/><path d="m421.52 366.713c.467 9.447 8.274 16.963 17.836 16.963 9.563 0 17.37-7.516 17.836-16.963z" fill="#fff"/><path d="m428.752 366.713c.455 5.459 5.027 9.748 10.604 9.748s10.148-4.289 10.604-9.748z" fill="#383842"/><path d="m394.945 388.731c-2.015 0-4.023-.807-5.501-2.4-2.816-3.037-2.638-7.782.399-10.599 6.928-6.426 16.987-6.427 23.919-.001 3.037 2.816 3.217 7.562.4 10.6-2.815 3.037-7.56 3.216-10.6.4-1.134-1.052-2.385-1.055-3.521-.001-1.441 1.339-3.271 2.001-5.096 2.001z" fill="#383842"/><path d="m387.233 405.571c-6.431-2.143-13.307-3.304-20.45-3.304-15.432 0-29.621 5.418-40.768 14.452 5.174 10.499 12.463 19.763 21.312 27.246l19.456-3.299 14.996-.274c4.631-.084 9.048-1.962 12.323-5.237 9.364-9.363 5.695-25.398-6.869-29.584z" fill="#f5aa3e"/><path d="m366.783 432.268c-19.256 0-34.866 15.61-34.866 34.866v10.348c0 13.541 10.977 24.518 24.518 24.518h20.695c13.541 0 24.518-10.977 24.518-24.518v-10.348c.001-19.256-15.609-34.866-34.865-34.866z" fill="url(#SVGID_8_)"/><path d="m135.906 432.268c19.256 0 34.866 15.61 34.866 34.866v10.348c0 13.541-10.977 24.518-24.518 24.518h-20.695c-13.541 0-24.518-10.977-24.518-24.518v-10.348c-.001-19.256 15.609-34.866 34.865-34.866z" fill="url(#SVGID_9_)"/></g></svg>