<svg id="Capa_1" enable-background="new 0 0 502 502" height="512" viewBox="0 0 502 502" width="512" xmlns="http://www.w3.org/2000/svg" xmlns:xlink="http://www.w3.org/1999/xlink"><linearGradient id="lg1"><stop offset=".0206" stop-color="#77e4d3"/><stop offset="1" stop-color="#01c2a0"/></linearGradient><linearGradient id="SVGID_1_" gradientUnits="userSpaceOnUse" x1="251.001" x2="251.001" xlink:href="#lg1" y1="502" y2="365.554"/><linearGradient id="SVGID_2_" gradientUnits="userSpaceOnUse" x1="251" x2="251" y1="216.51" y2="0"><stop offset=".0223" stop-color="#8959c3"/><stop offset="1" stop-color="#a27ccf"/></linearGradient><linearGradient id="lg2"><stop offset=".0212" stop-color="#ffbd86"/><stop offset="1" stop-color="#fed2a4"/></linearGradient><linearGradient id="SVGID_3_" gradientUnits="userSpaceOnUse" x1="386.944" x2="475.533" xlink:href="#lg2" y1="216.51" y2="216.51"/><linearGradient id="SVGID_4_" gradientUnits="userSpaceOnUse" x1="39.441" x2="102.082" xlink:href="#lg2" y1="247.831" y2="185.19"/><linearGradient id="lg3"><stop offset="0" stop-color="#fed2a4"/><stop offset=".9788" stop-color="#ffbd86"/></linearGradient><linearGradient id="SVGID_5_" gradientUnits="userSpaceOnUse" x1="251" x2="251" xlink:href="#lg3" y1="119.239" y2="396.75"/><linearGradient id="SVGID_6_" gradientUnits="userSpaceOnUse" x1="374.266" x2="374.266" xlink:href="#lg1" y1="463.87" y2="356.735"/><linearGradient id="SVGID_7_" gradientUnits="userSpaceOnUse" x1="127.736" x2="127.736" xlink:href="#lg1" y1="463.87" y2="356.735"/><linearGradient id="SVGID_8_" gradientUnits="userSpaceOnUse" x1="357.341" x2="357.341" xlink:href="#lg3" y1="384.166" y2="304.43"/><linearGradient id="SVGID_9_" gradientUnits="userSpaceOnUse" x1="144.66" x2="144.66" xlink:href="#lg3" y1="384.166" y2="304.43"/><g><path d="m401.264 502c0-81.06-50.879-136.446-50.879-136.446h-198.769s-50.879 55.387-50.879 136.446z" fill="url(#SVGID_1_)"/><path d="m467.511 216.51c0-119.384-97.126-216.51-216.511-216.51-119.384 0-216.51 97.126-216.51 216.51z" fill="url(#SVGID_2_)"/><g><path d="m347.952 69.088c-8.266-5.458-17.042-10.246-26.085-14.231-5.054-2.227-7.345-8.129-5.118-13.184 2.227-5.053 8.13-7.344 13.184-5.117 10.068 4.437 19.838 9.767 29.04 15.843 4.609 3.043 5.878 9.246 2.835 13.854-3.048 4.615-9.252 5.875-13.856 2.835z" fill="#d3c1e7"/></g><g><path d="m288.634 44.037c-6.652-1.449-13.482-2.522-20.302-3.19-5.497-.538-9.516-5.431-8.978-10.927s5.431-9.506 10.927-8.978c7.592.743 15.199 1.938 22.61 3.554 5.396 1.176 8.818 6.503 7.642 11.899-1.173 5.388-6.493 8.82-11.899 7.642z" fill="#d3c1e7"/></g><circle cx="431.238" cy="216.51" fill="url(#SVGID_3_)" r="44.294"/><circle cx="70.762" cy="216.51" fill="url(#SVGID_4_)" r="44.294"/><path d="m350.385 365.554h-198.769s-8.37 9.112-18.32 25.352c34.167 23.12 74.456 35.648 116.72 35.841 0 0 .995.002 1.001.002 42.607 0 83.272-12.53 117.713-35.803-9.961-16.265-18.345-25.392-18.345-25.392z" fill="#01ab8b"/><path d="m415.405 142.542c-4.404-9.768-15.493-14.76-25.623-11.267-8.431 2.907-17.872 4.535-27.843 4.535-17.639 0-33.625-5.09-45.288-13.347-6.072-4.299-14.293-4.299-20.364 0-11.662 8.257-27.648 13.347-45.287 13.347s-33.625-5.09-45.288-13.347c-6.072-4.299-14.293-4.299-20.364 0-11.663 8.257-27.649 13.347-45.288 13.347-9.993 0-19.457-1.634-27.905-4.555-10.153-3.51-21.263 1.513-25.662 11.313-10.113 22.536-15.733 47.554-15.733 73.922v.04c.01 99.488 80.015 179.764 179.393 180.218 99.42.454 179.95-78.736 181.075-178.151.307-27.125-5.38-52.892-15.823-76.055z" fill="url(#SVGID_5_)"/><path d="m358.307 356.735 42.307.397 19.434 53.572c7.464 20.575-3.16 43.314-23.736 50.779s-43.316-3.166-50.782-23.745l-19.434-53.572z" fill="url(#SVGID_6_)"/><path d="m143.694 356.735-42.307.397-19.434 53.572c-7.464 20.575 3.16 43.314 23.736 50.779s43.316-3.166 50.782-23.745l19.434-53.572z" fill="url(#SVGID_7_)"/><path d="m340.204 306.817c20.575-7.464 43.305 3.164 50.769 23.739l9.642 26.577-74.518 27.033-9.641-26.577c-7.466-20.575 3.162-43.304 23.748-50.772z" fill="url(#SVGID_8_)"/><ellipse cx="131.337" cy="248.666" fill="#fb99ac" rx="20.337" ry="16.344"/><ellipse cx="370.663" cy="248.666" fill="#fb99ac" rx="20.337" ry="16.344"/><path d="m166.203 213.739c9.78 0 18.807 2.164 26.086 5.818 6.187 3.106 13.564-1.091 14.113-7.992.154-1.938.171-3.914.04-5.92-1.349-20.622-18.52-37.09-39.179-37.619-22.756-.583-41.386 17.69-41.386 40.314 0 1.148.048 2.285.143 3.409.574 6.821 7.974 10.885 14.091 7.813 7.279-3.658 16.309-5.823 26.092-5.823z" fill="#fff"/><path d="m251 225.671c8.778 0 17.556 2.934 24.881 8.802 6.793 5.442 7.889 15.361 2.446 22.154-5.442 6.794-15.362 7.888-22.154 2.446-3.045-2.44-7.3-2.44-10.345 0-6.791 5.442-16.71 4.348-22.154-2.446-5.442-6.793-4.347-16.712 2.446-22.154 7.324-5.868 16.102-8.802 24.88-8.802z" fill="#383842"/><path d="m166.203 213.739c8.068 0 15.622 1.473 22.108 4.04 1.24-2.899 1.927-6.087 1.927-9.44 0-13.274-10.761-24.035-24.035-24.035s-24.035 10.761-24.035 24.035c0 3.353.686 6.54 1.927 9.44 6.486-2.567 14.04-4.04 22.108-4.04z" fill="#383842"/><path d="m335.797 213.739c9.78 0 18.807 2.164 26.086 5.818 6.187 3.106 13.564-1.091 14.113-7.992.154-1.938.171-3.914.04-5.92-1.349-20.622-18.52-37.09-39.179-37.619-22.756-.583-41.386 17.69-41.386 40.314 0 1.148.048 2.285.143 3.409.574 6.821 7.974 10.885 14.091 7.813 7.28-3.658 16.309-5.823 26.092-5.823z" fill="#fff"/><path d="m335.797 213.739c8.068 0 15.622 1.473 22.108 4.04 1.24-2.899 1.927-6.087 1.927-9.44 0-13.274-10.761-24.035-24.035-24.035s-24.035 10.761-24.035 24.035c0 3.353.687 6.54 1.927 9.44 6.486-2.567 14.04-4.04 22.108-4.04z" fill="#383842"/><path d="m161.798 306.817c-20.575-7.464-43.305 3.164-50.769 23.739l-9.642 26.577 74.518 27.033 9.641-26.577c7.465-20.575-3.163-43.304-23.748-50.772z" fill="url(#SVGID_9_)"/></g></svg>