<svg id="Capa_1" enable-background="new 0 0 502 502" height="512" viewBox="0 0 502 502" width="512" xmlns="http://www.w3.org/2000/svg" xmlns:xlink="http://www.w3.org/1999/xlink"><linearGradient id="lg1"><stop offset="0" stop-color="#a27ccf"/><stop offset=".9777" stop-color="#8959c3"/></linearGradient><linearGradient id="SVGID_1_" gradientUnits="userSpaceOnUse" x1="79.109" x2="379.636" xlink:href="#lg1" y1="433.777" y2="433.777"/><linearGradient id="SVGID_2_" gradientUnits="userSpaceOnUse" x1="229.372" x2="229.372" xlink:href="#lg1" y1="502" y2="365.554"/><linearGradient id="lg2"><stop offset="0" stop-color="#d66743"/><stop offset=".9788" stop-color="#e79580"/></linearGradient><linearGradient id="SVGID_3_" gradientUnits="userSpaceOnUse" x1="417.345" x2="417.345" xlink:href="#lg2" y1="149.917" y2="4.87"/><linearGradient id="SVGID_4_" gradientUnits="userSpaceOnUse" x1="229.372" x2="229.372" xlink:href="#lg2" y1="216.51" y2="0"/><linearGradient id="lg3"><stop offset=".0212" stop-color="#fdc8bb"/><stop offset="1" stop-color="#fddacc"/></linearGradient><linearGradient id="SVGID_5_" gradientUnits="userSpaceOnUse" x1="365.316" x2="453.904" xlink:href="#lg3" y1="216.51" y2="216.51"/><linearGradient id="SVGID_6_" gradientUnits="userSpaceOnUse" x1="4.839" x2="93.427" xlink:href="#lg3" y1="216.51" y2="216.51"/><linearGradient id="lg4"><stop offset="0" stop-color="#f9cdb7"/><stop offset="1" stop-color="#f9b897"/></linearGradient><linearGradient id="SVGID_7_" gradientUnits="userSpaceOnUse" x1="49.145" x2="49.145" xlink:href="#lg4" y1="220.663" y2="216.53"/><linearGradient id="SVGID_8_" gradientUnits="userSpaceOnUse" x1="229.379" x2="229.379" xlink:href="#lg4" y1="396.75" y2="90.867"/><linearGradient id="lg5"><stop offset="0" stop-color="#fd86c8"/><stop offset=".9788" stop-color="#ffb1db"/></linearGradient><linearGradient id="SVGID_9_" gradientUnits="userSpaceOnUse" x1="106.107" x2="106.107" xlink:href="#lg5" y1="463.87" y2="356.735"/><linearGradient id="SVGID_10_" gradientUnits="userSpaceOnUse" x1="352.638" x2="352.638" xlink:href="#lg5" y1="463.87" y2="356.735"/><linearGradient id="SVGID_11_" gradientUnits="userSpaceOnUse" x1="79.759" x2="166.305" xlink:href="#lg4" y1="344.298" y2="344.298"/><linearGradient id="SVGID_12_" gradientUnits="userSpaceOnUse" x1="292.44" x2="378.986" y1="344.298" y2="344.298"><stop offset="0" stop-color="#f9b897"/><stop offset="1" stop-color="#f9cdb7"/></linearGradient><g><path d="m379.636 502c0-81.06-50.879-136.446-50.879-136.446h-198.769s-50.879 55.387-50.879 136.446z" fill="url(#SVGID_1_)"/><path d="m379.636 502c0-81.06-50.879-136.446-50.879-136.446h-198.769s-50.879 55.387-50.879 136.446z" fill="url(#SVGID_2_)"/><path d="m490.279 109.028c-7.899-7.047-14.41-18.006-14.41-34.988 0-39.285-32.75-70.92-72.436-69.095-35.436 1.63-64.198 30.392-65.828 65.827-1.826 39.687 29.81 72.437 69.094 72.437 33.084 10.028 58.271 7.428 76.24 1.198 15.043-5.215 19.22-24.779 7.34-35.379z" fill="url(#SVGID_3_)"/><path d="m410.629 49.61c-11.923-12.933-25.212-24.587-39.631-34.741-19.148 11.629-32.306 32.276-33.393 55.904l53.239 12.504c6.888 1.618 14.123-.442 19.126-5.445 7.72-7.722 8.06-20.194.659-28.222z" fill="#d86743"/><path d="m445.882 216.51c0-119.384-97.125-216.51-216.51-216.51-119.384 0-216.511 97.126-216.511 216.51z" fill="url(#SVGID_4_)"/><circle cx="409.61" cy="216.51" fill="url(#SVGID_5_)" r="44.294"/><circle cx="49.133" cy="216.51" fill="url(#SVGID_6_)" r="44.294"/><path d="m328.757 365.554h-198.769s-8.365 9.107-18.312 25.339c34.177 23.122 74.481 35.662 116.712 35.855 0 0 .994.002 1 .002 42.606 0 83.272-12.529 117.713-35.803-9.96-16.266-18.344-25.393-18.344-25.393z" fill="#8959c3"/><g><path d="m49.132 220.663c0-.691.018-1.378.026-2.067-.008-.689-.026-1.376-.026-2.067z" fill="url(#SVGID_7_)"/><path d="m384.758 128.995c-21.871-37.117-70.109-49.373-106.783-26.766-40.059 24.693-88.094 39.077-139.744 39.077-12.625 0-25.032-.864-37.159-2.527-19.264-2.642-37.785 8.959-43.621 27.508-5.199 16.524-8.088 34.085-8.293 52.31 1.111 98.529 80.679 177.701 179.367 178.151 99.42.454 179.95-78.736 181.075-178.151-.371-32.777-9.375-63.354-24.842-89.602z" fill="url(#SVGID_8_)"/></g><g><path d="m159.716 43.2c-1.787-5.226 1.002-10.911 6.228-12.697 5.006-1.711 10.16-3.239 15.317-4.541 5.36-1.35 10.792 1.895 12.143 7.25s-1.895 10.792-7.25 12.143c-4.629 1.168-9.252 2.538-13.742 4.073-5.213 1.783-10.906-.99-12.696-6.228z" fill="#f3cac0"/></g><g><path d="m108.732 74.028c-3.342-4.397-2.486-10.67 1.912-14.012 6.372-4.843 13.096-9.336 19.983-13.357 4.768-2.784 10.893-1.175 13.678 3.595 2.784 4.77 1.175 10.893-3.595 13.678-6.19 3.614-12.235 7.654-17.965 12.009-4.392 3.336-10.667 2.49-14.013-1.913z" fill="#f3cac0"/></g><path d="m122.066 356.735-42.307.397-19.434 53.572c-7.464 20.575 3.16 43.314 23.736 50.779s43.316-3.166 50.782-23.745l19.434-53.572z" fill="url(#SVGID_9_)"/><path d="m336.679 356.735 42.307.397 19.434 53.572c7.464 20.575-3.16 43.314-23.736 50.779s-43.316-3.166-50.782-23.745l-19.434-53.572z" fill="url(#SVGID_10_)"/><path d="m140.17 306.817c-20.575-7.464-43.305 3.164-50.769 23.739l-9.642 26.577 74.518 27.033 9.641-26.577c7.465-20.575-3.163-43.304-23.748-50.772z" fill="url(#SVGID_11_)"/><path d="m318.575 306.817c20.575-7.464 43.305 3.164 50.769 23.739l9.642 26.577-74.518 27.033-9.641-26.577c-7.465-20.575 3.163-43.304 23.748-50.772z" fill="url(#SVGID_12_)"/><g><ellipse cx="109.709" cy="248.666" fill="#fb99ac" rx="20.337" ry="16.344"/><ellipse cx="349.035" cy="248.666" fill="#fb99ac" rx="20.337" ry="16.344"/><path d="m229.372 225.671c8.778 0 17.556 2.934 24.881 8.802 6.793 5.442 7.889 15.361 2.446 22.154-5.442 6.794-15.362 7.888-22.154 2.446-3.045-2.44-7.3-2.44-10.345 0-6.791 5.442-16.71 4.348-22.154-2.446-5.442-6.793-4.347-16.712 2.446-22.154 7.324-5.868 16.101-8.802 24.88-8.802z" fill="#383842"/><path d="m184.813 205.645c-1.349-20.622-18.52-37.09-39.179-37.62-22.756-.583-41.386 17.69-41.386 40.314 0 1.148.048 2.285.143 3.409.574 6.821 7.974 10.885 14.091 7.813 1.282-.644 2.636-1.223 4.021-1.771l-.037-.011 22.108-12.206 22.108 12.206-.037.011c1.382.546 2.734 1.125 4.014 1.767 6.187 3.106 13.563-1.091 14.113-7.992.155-1.938.172-3.914.041-5.92z" fill="#fff"/><path d="m144.574 213.739c8.068 0 15.622 1.473 22.108 4.04 1.24-2.899 1.927-6.087 1.927-9.44 0-13.274-10.761-24.035-24.035-24.035s-24.035 10.761-24.035 24.035c0 3.353.686 6.54 1.927 9.44 6.486-2.567 14.04-4.04 22.108-4.04z" fill="#383842"/><path d="m354.407 205.645c-1.349-20.622-18.52-37.09-39.179-37.62-22.756-.583-41.386 17.69-41.386 40.314 0 1.148.048 2.285.143 3.409.574 6.821 7.974 10.885 14.091 7.813 1.284-.645 2.64-1.225 4.028-1.773l-.043-.008 22.108-9.66 22.108 9.66-.043.008c1.385.547 2.739 1.126 4.021 1.77 6.187 3.106 13.564-1.091 14.113-7.992.154-1.939.171-3.915.039-5.921z" fill="#fff"/><path d="m314.169 213.739c8.068 0 15.622 1.473 22.108 4.04 1.24-2.899 1.927-6.087 1.927-9.44 0-13.274-10.761-24.035-24.035-24.035s-24.035 10.761-24.035 24.035c0 3.353.687 6.54 1.927 9.44 6.486-2.567 14.04-4.04 22.108-4.04z" fill="#383842"/></g></g></svg>