<svg id="Capa_1" enable-background="new 0 0 502 502" height="512" viewBox="0 0 502 502" width="512" xmlns="http://www.w3.org/2000/svg" xmlns:xlink="http://www.w3.org/1999/xlink"><linearGradient id="SVGID_1_" gradientUnits="userSpaceOnUse" x1="161.137" x2="161.137" y1="29.274" y2="425.148"><stop offset=".0005580357" stop-color="#5bd4fb"/><stop offset=".9777" stop-color="#a2e4fd"/></linearGradient><linearGradient id="lg1"><stop offset=".0223" stop-color="#8959c3"/><stop offset="1" stop-color="#a27ccf"/></linearGradient><linearGradient id="SVGID_2_" gradientUnits="userSpaceOnUse" x1="369.511" x2="369.511" xlink:href="#lg1" y1="360.764" y2="472.725"/><linearGradient id="SVGID_3_" gradientUnits="userSpaceOnUse" x1="161.137" x2="161.137" xlink:href="#lg1" y1="360.764" y2="425.148"/><linearGradient id="SVGID_4_" gradientUnits="userSpaceOnUse" x1="28.648" x2="293.625" xlink:href="#lg1" y1="239.187" y2="239.187"/><linearGradient id="SVGID_5_" gradientUnits="userSpaceOnUse" x1="237.023" x2="502" xlink:href="#lg1" y1="239.187" y2="239.187"/><g><path d="m273.008 29.274h-223.743c-27.208 0-49.265 22.057-49.265 49.265v297.344c0 27.208 22.057 49.265 49.265 49.265h12.33l99.542-18.031 99.542 18.031h12.33c27.208 0 49.265-22.057 49.265-49.265v-297.344c-.001-27.208-22.058-49.265-49.266-49.265z" fill="url(#SVGID_1_)"/><path d="m264.078 472.725c0-89.65 52.705-111.961 52.705-111.961h105.457s52.705 22.311 52.705 111.961z" fill="url(#SVGID_2_)"/><g><path d="m305.762 472.726v-43.104c0-4.158 3.37-7.528 7.528-7.528s7.528 3.37 7.528 7.528v43.104z" fill="#8959c3"/></g><g><path d="m433.26 472.726v-43.104c0-4.158-3.37-7.528-7.528-7.528s-7.528 3.37-7.528 7.528v43.104z" fill="#8959c3"/></g><path d="m365.585 366.104-10.556-14.993-38.247 9.652s-12.428 5.284-25.212 20.966c16.192 8.89 34.052 15.103 52.982 18.036 13.103 2.03 24.959-8.006 24.959-21.265.001-4.437-1.371-8.767-3.926-12.396z" fill="#8959c3"/><path d="m61.594 425.148h199.084c-13.75-50.377-46.813-64.384-46.813-64.384h-105.457s-33.064 14.008-46.814 64.384z" fill="url(#SVGID_3_)"/><path d="m157.21 366.104-10.556-14.993-38.247 9.652s-12.428 5.284-25.212 20.966c16.192 8.89 34.052 15.103 52.982 18.036 13.103 2.03 24.959-8.006 24.959-21.265.001-4.437-1.37-8.767-3.926-12.396z" fill="#8959c3"/><path d="m161.136 371.681c-73.401 0-132.489-59.546-132.489-132.499 0-73.17 59.319-132.489 132.489-132.489s132.489 59.319 132.489 132.489c0 72.923-59.074 132.499-132.489 132.499z" fill="url(#SVGID_4_)"/><g><ellipse cx="71.019" cy="277.379" fill="#fb99ac" rx="15.316" ry="12.308"/><circle cx="97.276" cy="247.009" fill="#fff" r="30.37"/><circle cx="224.997" cy="247.009" fill="#fff" r="30.37"/><g fill="#383842"><g><circle cx="97.276" cy="247.009" r="18.101"/><circle cx="224.997" cy="247.009" r="18.101"/></g><path d="m161.136 278.217c-5.35 0-10.7-2.023-15.064-6.07-2.025-1.877-2.145-5.041-.267-7.066s5.042-2.145 7.066-.267c4.868 4.513 11.666 4.512 16.532 0 2.024-1.876 5.188-1.758 7.066.267 1.877 2.025 1.758 5.188-.267 7.066-4.365 4.047-9.715 6.07-15.066 6.07z"/></g></g><path d="m369.511 371.681c-73.401 0-132.489-59.546-132.489-132.499 0-73.17 59.319-132.489 132.489-132.489s132.489 59.319 132.489 132.489c0 72.923-59.074 132.499-132.489 132.499z" fill="url(#SVGID_5_)"/><g><path d="m448.752 184.76c-3.02 0-6.004-1.362-7.971-3.953-2.379-3.132-4.984-6.093-7.743-8.8-3.942-3.868-4.002-10.199-.134-14.142 3.868-3.941 10.199-4.001 14.142-.134 3.448 3.383 6.699 7.078 9.663 10.98 3.34 4.398 2.483 10.671-1.916 14.012-1.808 1.374-3.933 2.037-6.041 2.037z" fill="#d3c1e7"/></g><g><path d="m412.443 156.129c-1.406 0-2.833-.298-4.193-.927-6.285-2.908-12.93-5.108-19.751-6.539-5.405-1.134-8.868-6.435-7.734-11.84s6.435-8.863 11.84-7.734c8.299 1.741 16.388 4.419 24.044 7.961 5.012 2.319 7.196 8.263 4.876 13.275-1.691 3.654-5.306 5.804-9.082 5.804z" fill="#d3c1e7"/></g><g><path d="m292.273 88.539c-5.523 0-10-4.477-10-10 0-5.108-4.156-9.265-9.265-9.265-5.523 0-10-4.477-10-10s4.477-10 10-10c16.137 0 29.265 13.128 29.265 29.265 0 5.523-4.477 10-10 10z" fill="#bde5f6"/></g><g><path d="m238.254 69.274h-12.316c-5.523 0-10-4.477-10-10s4.477-10 10-10h12.316c5.523 0 10 4.477 10 10s-4.477 10-10 10z" fill="#bde5f6"/></g></g></svg>