<svg id="Capa_1" enable-background="new 0 0 512 512" height="512" viewBox="0 0 512 512" width="512" xmlns="http://www.w3.org/2000/svg"><g><g><g><g><g><g><path d="m159.373 433.178 77.362-77.362c5.976-5.977 5.976-15.666 0-21.642-5.976-5.976-15.666-5.976-21.642 0l19.718-19.718c5.976-5.977 5.976-15.666 0-21.642-5.976-5.976-15.666-5.976-21.642 0l-10.332 10.332c5.976-5.976 5.976-15.666 0-21.642-5.976-5.977-15.666-5.977-21.642 0l-12.776 12.776c5.976-5.976 5.976-15.666 0-21.642-5.976-5.976-15.666-5.976-21.642 0l-83.911 83.911c-8.483 8.483-13.968 19.5-15.623 31.381l-2.133 15.307c-.157 1.129-.678 2.175-1.484 2.981l-40.558 40.555c-4.091 4.091-4.091 10.725 0 14.816l44.512 44.511c4.091 4.091 10.725 4.091 14.816 0l38.837-38.837z" fill="#ffcec0"/><path d="m236.734 355.82-11.524 11.524-70.402-70.402c-5.605-5.615-10.225-11.849-13.86-18.48l5.825-5.825c2.996-2.986 6.914-4.484 10.822-4.484 3.918 0 7.836 1.498 10.822 4.484 5.982 5.982 5.982 15.662 0 21.644l12.781-12.781c2.986-2.986 6.904-4.484 10.812-4.484 3.918 0 7.836 1.498 10.822 4.484 5.982 5.982 5.982 15.673 0 21.644l10.34-10.33c2.986-2.986 6.904-4.484 10.812-4.484 3.918 0 7.836 1.498 10.822 4.484 5.982 5.972 5.982 15.662 0 21.644l-19.717 19.717c2.986-2.996 6.904-4.484 10.822-4.484s7.836 1.488 10.822 4.484c5.983 5.972 5.983 15.662.001 21.645z" fill="#fdb0a0"/><path d="m236.734 355.82-77.358 77.358-58.144 34.09-38.833 38.832c-4.092 4.092-10.727 4.091-14.818-.002l-8.789-8.794 46.243-46.243 58.134-34.08 77.369-77.368c2.745-2.745 4.232-6.286 4.442-9.89.001-.001.002-.002.003-.003 4.222-.254 8.529 1.223 11.751 4.456 5.982 5.971 5.982 15.661 0 21.644z" fill="#fdb0a0"/><g><path d="m236.671 312.185-72.172 72.172c-1.54 1.53-3.541 2.305-5.553 2.305-2.011 0-4.023-.775-5.563-2.305-3.07-3.07-3.07-8.046 0-11.116l80.92-80.91c.168.157.335.314.503.482 5.27 5.26 5.898 13.422 1.865 19.372z" fill="#fdb0a0"/></g><g><path d="m204.718 300.85-62.324 62.324c-1.53 1.53-3.541 2.294-5.553 2.294s-4.023-.765-5.552-2.294c-3.07-3.07-3.07-8.046 0-11.115l71.041-71.041c.168.157.335.314.503.482 5.269 5.269 5.897 13.399 1.885 19.35z" fill="#fdb0a0"/></g><g><path d="m170.355 291.924-.042.042-48.066 48.076c-1.53 1.53-3.541 2.294-5.553 2.294s-4.023-.765-5.563-2.294c-3.07-3.07-3.07-8.046 0-11.115l56.782-56.772c.168.157.335.314.503.482 5.25 5.248 5.889 13.336 1.939 19.287z" fill="#fdb0a0"/></g><g><path d="m236.671 312.185-33.305 33.315-11.115-11.116 42.052-42.052c.178.157.335.325.503.482 5.27 5.259 5.898 13.421 1.865 19.371z" fill="#f99f91"/></g><g><path d="m204.718 300.85-22.996 23.006-11.116-11.116 31.723-31.723c.178.157.335.325.503.482 5.27 5.27 5.898 13.4 1.886 19.351z" fill="#f99f91"/></g><g><path d="m170.355 291.924-10.277 10.288-5.27-5.27c-1.97-1.97-3.813-4.023-5.542-6.139l18.648-18.648c.168.157.335.314.503.482 5.249 5.248 5.888 13.336 1.938 19.287z" fill="#f99f91"/></g></g><g><g><path d="m219.846 372.708-14.353 14.353c-4.746.388-9.073 1.592-10.529 3.049l-27.773 27.773c-3.07 3.07-8.035 3.07-11.105 0l-2.263-2.252c-7.585-7.595-18.355-10.592-28.789-8.014-4.222 1.037-8.475-1.54-9.513-5.752-.157-.639-.231-1.268-.231-1.886 0-3.531 2.399-6.747 5.982-7.627 14.3-3.52 29.009-.147 40.198 9.031l22.388-22.378c6.497-6.507 23.049-9.975 35.988-6.297z" fill="#f99f91"/></g><path d="m225.828 405.541-46.079 50.153c-5.105 5.556-11.51 9.757-18.639 12.227l-21.91 7.588c-6.516 2.256-13.655 1.874-19.892-1.067l-20.675-9.748-21.56-21.56 25.864-25.864c14.939-14.939 39.16-14.939 54.099 0l.772.772c2.046 2.046 5.362 2.046 7.408 0l24.068-24.068c9.994-9.994 26.198-9.994 36.193 0 3.157 3.156 3.311 8.225.351 11.567z" fill="#ffcec0"/><path d="m227.955 399.946c0 1.99-.702 3.992-2.127 5.594l-46.075 50.151c-5.112 5.563-11.514 9.764-18.638 12.226l-21.917 7.595c-6.516 2.252-13.651 1.865-19.895-1.069l-20.67-9.754-15.264-15.264 20.67 9.754c6.244 2.933 13.378 3.321 19.895 1.058l21.917-7.585c7.124-2.462 13.525-6.663 18.638-12.226l46.075-50.151c.87-.985 1.467-2.116 1.802-3.311 4.809.943 9.397 3.29 13.117 7.009 1.644 1.647 2.472 3.805 2.472 5.973z" fill="#fdb0a0"/><g><path d="m102.279 466.66-1.048.608-10.277 10.288-19.434-19.434c-3.07-3.07-3.07-8.046 0-11.115 3.059-3.07 8.035-3.07 11.105 0z" fill="#f99f91"/></g></g></g></g><g><g><g><path d="m352.627 78.822-77.362 77.362c-5.976 5.977-5.976 15.666 0 21.642 5.976 5.976 15.666 5.976 21.642 0l-19.718 19.718c-5.976 5.977-5.976 15.666 0 21.642 5.976 5.976 15.666 5.976 21.642 0l10.332-10.332c-5.976 5.976-5.976 15.666 0 21.642 5.976 5.977 15.666 5.977 21.642 0l12.776-12.776c-5.976 5.976-5.976 15.666 0 21.642 5.976 5.976 15.666 5.976 21.642 0l83.911-83.911c8.483-8.483 13.968-19.5 15.623-31.381l2.133-15.307c.157-1.129.678-2.175 1.484-2.981l40.554-40.554c4.091-4.091 4.091-10.725 0-14.816l-44.508-44.512c-4.091-4.091-10.725-4.091-14.816 0l-38.837 38.837z" fill="#d5887a"/><path d="m508.932 65.225-40.557 40.557c-.806.806-1.328 1.854-1.484 2.983l-2.126 15.305c-1.655 11.88-7.145 22.901-15.631 31.377l-83.906 83.916c-2.996 2.986-6.914 4.484-10.822 4.484-3.918 0-7.836-1.498-10.822-4.484-3.321-3.321-4.798-7.794-4.421-12.132 3.457-.293 6.852-1.771 9.513-4.421l83.906-83.916c8.486-8.475 13.965-19.497 15.631-31.377l2.126-15.305c.157-1.129.678-2.177 1.484-2.983l47.965-47.965 9.145 9.145c4.09 4.092 4.09 10.725-.001 14.816z" fill="#c86f5c"/><g><path d="m347.093 127.234-52.508 52.508c-2.567 1.718-5.532 2.567-8.496 2.567-3.918 0-7.836-1.488-10.822-4.484-.168-.168-.325-.335-.492-.503l61.203-61.203c3.07-3.07 8.046-3.07 11.116 0 3.068 3.069 3.068 8.045-.001 11.115z" fill="#c86f5c"/></g><g><path d="m369.187 148.417-72.654 72.654c-2.567 1.729-5.542 2.598-8.517 2.598-3.918 0-7.836-1.498-10.822-4.484-.168-.168-.325-.335-.492-.503l81.381-81.381c3.059-3.07 8.035-3.07 11.105 0s3.069 8.047-.001 11.116z" fill="#c86f5c"/></g><g><path d="m389.344 171.549-60.837 60.837c-2.567 1.729-5.542 2.598-8.517 2.598-3.918 0-7.836-1.498-10.822-4.484-.168-.168-.325-.335-.492-.513l69.553-69.553c3.07-3.059 8.046-3.059 11.116 0 3.069 3.07 3.069 8.046-.001 11.115z" fill="#c86f5c"/></g></g><g><g><path d="m396.667 111.645c0 3.531-2.399 6.736-5.982 7.616-14.3 3.52-28.999.157-40.198-9.02l-22.378 22.378c-6.443 6.443-22.776 9.911-35.662 6.38l14.499-14.489c4.557-.43 8.633-1.592 10.047-3.007l27.773-27.773c3.07-3.07 8.046-3.07 11.115 0l2.252 2.252c7.595 7.595 18.355 10.592 28.8 8.025 4.212-1.037 8.465 1.54 9.502 5.752.159.629.232 1.258.232 1.886z" fill="#c86f5c"/></g><g><path d="m345.71 115.019-17.6 17.6c-3.248 3.248-9.02 5.741-15.589 6.956l23.457-23.457c2.639-2.639 6.704-3.006 9.732-1.099z" fill="#c16252"/></g><path d="m286.172 106.459 46.079-50.153c5.105-5.556 11.51-9.757 18.639-12.226l21.91-7.588c6.516-2.256 13.655-1.874 19.892 1.067l20.675 9.748 21.56 21.56-25.863 25.863c-14.939 14.939-39.16 14.939-54.099 0l-.772-.772c-2.046-2.046-5.362-2.046-7.408 0l-24.068 24.068c-9.994 9.994-26.198 9.994-36.193 0-3.158-3.156-3.312-8.225-.352-11.567z" fill="#d5887a"/><g><path d="m441.527 67.089c-1.53 1.53-3.541 2.305-5.553 2.305-2.011 0-4.023-.765-5.552-2.305l-21.361-21.361 1.708-.995 9.764-9.754 20.995 20.995c3.069 3.069 3.069 8.045-.001 11.115z" fill="#c86f5c"/></g></g></g></g></g><g><g><g><g><path d="m78.822 159.373 77.362 77.362c5.977 5.976 15.666 5.976 21.642 0 5.976-5.976 5.976-15.666 0-21.642l19.718 19.718c5.977 5.976 15.666 5.976 21.642 0 5.976-5.976 5.976-15.666 0-21.642l-10.332-10.332c5.976 5.976 15.666 5.976 21.642 0 5.977-5.976 5.977-15.666 0-21.642l-12.776-12.776c5.976 5.976 15.666 5.976 21.642 0 5.976-5.976 5.976-15.666 0-21.642l-83.911-83.911c-8.483-8.483-19.5-13.968-31.381-15.623l-15.307-2.133c-1.129-.157-2.175-.678-2.981-1.484l-40.555-40.558c-4.091-4.091-10.725-4.091-14.816 0l-44.511 44.512c-4.091 4.091-4.091 10.725 0 14.816l38.837 38.837z" fill="#a34f41"/><path d="m243.847 157.595c0 3.918-1.498 7.836-4.484 10.822-4.002 4.002-9.67 5.332-14.772 3.96-.66-2.514-1.991-4.892-3.96-6.873l-83.916-83.906c-8.475-8.486-19.497-13.976-31.377-15.631l-15.305-2.126c-1.129-.157-2.177-.678-2.983-1.484l-47.965-47.965 11.324-11.324c4.091-4.091 10.725-4.091 14.816 0l40.557 40.557c.806.806 1.854 1.328 2.983 1.484l15.305 2.126c11.88 1.655 22.901 7.145 31.377 15.631l83.916 83.906c2.986 2.997 4.484 6.915 4.484 10.823z" fill="#873f30"/><g><path d="m182.309 225.912c0 3.918-1.488 7.836-4.484 10.822-.168.168-.335.325-.503.492l-59.108-59.108c-3.07-3.07-3.07-8.046 0-11.115 3.07-3.07 8.046-3.07 11.115 0l50.434 50.434.021.021c1.676 2.555 2.525 5.499 2.525 8.454z" fill="#873f30"/></g><g><path d="m223.67 223.984c0 3.918-1.498 7.836-4.484 10.822-.168.168-.335.325-.503.492l-79.286-79.286c-3.07-3.059-3.07-8.035 0-11.105s8.046-3.07 11.115 0l70.517 70.517.021.021c1.75 2.578 2.62 5.564 2.62 8.539z" fill="#873f30"/></g><g><path d="m234.984 192.01c0 3.918-1.498 7.836-4.484 10.822-.168.168-.335.325-.513.482l-67.458-67.447c-3.07-3.07-3.07-8.046 0-11.116s8.046-3.07 11.115 0l58.752 58.762c1.729 2.567 2.588 5.532 2.588 8.497z" fill="#873f30"/></g></g><g><g><path d="m139.24 219.793-14.269-14.269c-.356-4.851-1.582-9.324-3.07-10.812l-27.772-27.772c-3.07-3.07-3.07-8.046 0-11.115l2.252-2.252c7.595-7.585 10.592-18.355 8.015-28.789-1.037-4.222 1.54-8.475 5.752-9.513.639-.157 1.268-.23 1.886-.23 3.531 0 6.747 2.399 7.627 5.982 3.52 14.3.147 28.999-9.031 40.198l22.378 22.378c6.536 6.536 10.004 23.225 6.232 36.194z" fill="#873f30"/></g><g><path d="m140.12 200.024-21.906-21.906c-2.766-2.766-3.038-7.061-.817-10.131l15.61 15.61c3.394 3.395 5.961 9.513 7.113 16.427z" fill="#7f372b"/></g><path d="m106.459 225.828-50.153-46.078c-5.556-5.105-9.757-11.51-12.226-18.639l-7.588-21.91c-2.256-6.516-1.874-13.655 1.067-19.892l9.748-20.675 21.56-21.56 25.864 25.864c14.939 14.939 14.939 39.16 0 54.099l-.772.772c-2.046 2.046-2.046 5.362 0 7.408l24.068 24.068c9.994 9.994 9.994 26.198 0 36.193-3.157 3.156-8.226 3.31-11.568.35z" fill="#a34f41"/><g><path d="m64.994 83.673-19.266 19.266-.995-1.708-9.754-9.754 18.899-18.91c3.07-3.07 8.046-3.07 11.115 0 3.07 3.071 3.07 8.036.001 11.106z" fill="#873f30"/></g></g></g></g><g><g><g><path d="m433.178 352.627-77.362-77.362c-5.977-5.976-15.666-5.976-21.642 0-5.976 5.976-5.976 15.666 0 21.642l-19.718-19.718c-5.977-5.976-15.666-5.976-21.642 0-5.976 5.976-5.976 15.666 0 21.642l10.332 10.332c-5.976-5.976-15.666-5.976-21.642 0-5.977 5.976-5.977 15.666 0 21.642l12.776 12.776c-5.976-5.976-15.666-5.976-21.642 0-5.976 5.976-5.976 15.666 0 21.642l83.911 83.911c8.483 8.483 19.5 13.968 31.381 15.623l15.307 2.133c1.129.157 2.175.678 2.981 1.484l40.554 40.554c4.091 4.091 10.725 4.091 14.816 0l44.512-44.508c4.091-4.091 4.091-10.725 0-14.816l-38.837-38.837z" fill="#ffdfd0"/><path d="m366.443 285.889c-2.703 3.876-5.783 7.574-9.23 11.032l-76.447 76.436-8.13-8.13c-2.986-2.996-4.484-6.914-4.484-10.822 0-3.918 1.498-7.836 4.484-10.822 5.982-5.982 15.662-5.982 21.644 0l-12.78-12.781c-2.986-2.986-4.484-6.904-4.484-10.812 0-3.918 1.498-7.836 4.484-10.822 5.982-5.982 15.673-5.982 21.644 0l-10.33-10.34c-2.986-2.986-4.484-6.904-4.484-10.812 0-3.918 1.498-7.836 4.484-10.822 5.972-5.982 15.662-5.982 21.644 0l19.717 19.717c-2.996-2.986-4.484-6.904-4.484-10.822s1.488-7.836 4.484-10.822c5.972-5.982 15.662-5.982 21.644 0z" fill="#ffcec0"/><path d="m497.304 473.208-46.243-46.243-34.08-58.134-77.368-77.369c-2.745-2.745-6.286-4.232-9.89-4.442-.001-.001-.002-.002-.004-.004-.254-4.222 1.223-8.529 4.456-11.751 5.972-5.982 15.662-5.982 21.644 0l77.358 77.358 34.09 58.144 38.833 38.833c4.092 4.092 4.091 10.727-.002 14.818z" fill="#ffcec0"/><g><path d="m386.453 360.712c-1.53 1.53-3.541 2.294-5.553 2.294-2.011 0-4.023-.765-5.563-2.294l-83.015-83.015c.168-.168.325-.335.492-.503 5.259-5.27 13.42-5.898 19.371-1.865l74.267 74.267c3.07 3.07 3.07 8.046.001 11.116z" fill="#ffcec0"/></g><g><path d="m365.269 382.807c-1.54 1.54-3.551 2.305-5.563 2.305-2.011 0-4.012-.765-5.552-2.305l-73.136-73.136c.157-.168.314-.335.482-.503 5.27-5.27 13.399-5.898 19.35-1.886l64.42 64.42c3.069 3.059 3.069 8.035-.001 11.105z" fill="#ffcec0"/></g><g><path d="m342.137 402.964c-1.54 1.53-3.552 2.294-5.563 2.294-2.012 0-4.023-.765-5.553-2.294l-58.867-58.878c.157-.168.314-.335.482-.503 5.238-5.238 13.326-5.888 19.277-1.949l.021.01 50.203 50.203c3.07 3.071 3.07 8.047 0 11.117z" fill="#ffcec0"/></g><g><path d="m345.49 308.634-11.116 11.115-42.042-42.042c.157-.178.314-.346.482-.513 5.259-5.27 13.42-5.898 19.371-1.865z" fill="#fdb0a0"/></g><g><path d="m323.845 330.278-11.105 11.115-31.723-31.723c.157-.178.325-.335.482-.503 5.27-5.27 13.399-5.898 19.35-1.886z" fill="#fdb0a0"/></g><g><path d="m302.201 351.922-11.105 11.105-18.941-18.941c.157-.168.314-.335.482-.503 5.249-5.249 13.347-5.888 19.298-1.938z" fill="#fdb0a0"/></g></g><g><g><path d="m417.61 356.375-2.252 2.252c-7.595 7.585-10.592 18.355-8.014 28.789 1.037 4.222-1.54 8.475-5.752 9.513-.639.157-1.268.23-1.886.23-3.531 0-6.747-2.399-7.627-5.982-3.52-14.3-.147-28.999 9.031-40.198l-22.378-22.378c-6.6-6.6-10.068-23.541-6.129-36.552l14.143 14.143c.293 5.039 1.551 9.754 3.091 11.294l27.773 27.773c3.069 3.07 3.069 8.046 0 11.116z" fill="#fdb0a0"/></g><path d="m405.541 286.172 50.153 46.079c5.556 5.105 9.757 11.51 12.227 18.639l7.588 21.91c2.256 6.516 1.874 13.655-1.067 19.892l-9.748 20.675-21.56 21.56-25.864-25.864c-14.939-14.939-14.939-39.16 0-54.099l.772-.772c2.046-2.046 2.046-5.362 0-7.408l-24.068-24.068c-9.994-9.994-9.994-26.198 0-36.193 3.156-3.157 8.225-3.311 11.567-.351z" fill="#ffdfd0"/><path d="m474.444 392.697-9.754 20.67-16.197 16.197 9.743-20.67c2.944-6.233 3.332-13.378 1.069-19.895l-7.585-21.906c-2.472-7.134-6.673-13.536-12.226-18.638l-50.151-46.086c-.786-.691-1.666-1.215-2.588-1.561.786-5.228 3.195-10.267 7.218-14.29 1.645-1.645 3.803-2.472 5.972-2.472 1.99 0 3.992.702 5.594 2.127l50.151 46.075c5.563 5.112 9.764 11.514 12.226 18.638l7.595 21.917c2.254 6.515 1.867 13.65-1.067 19.894z" fill="#ffcec0"/><g><path d="m477.556 421.056-19.434 19.423c-1.54 1.54-3.552 2.305-5.563 2.305s-4.023-.765-5.552-2.305c-3.07-3.07-3.07-8.035 0-11.105l19.654-19.654.608 1.048z" fill="#fdb0a0"/></g></g></g></g></g></g><g><path d="m342.373 282.122c23.797-23.857 23.78-62.487-.054-86.321-22.742-22.742-58.954-23.799-82.951-3.175-1.933 1.661-4.81 1.661-6.743 0-23.996-20.624-60.209-19.566-82.951 3.175-23.834 23.834-23.851 62.464-.054 86.321l78.087 78.09c4.578 4.578 11.999 4.578 16.577 0z" fill="#fc78a8"/><path d="m342.378 282.118-78.091 78.091c-4.578 4.578-11.995 4.578-16.574 0l-9.596-9.596 76.206-76.216c23.802-23.855 23.782-62.492-.052-86.326-4.075-4.075-8.58-7.449-13.368-10.131 15.034.43 29.942 6.391 41.413 17.862 23.833 23.834 23.854 62.461.062 86.316z" fill="#fc5a95"/></g></g></svg>